<?xml version="1.0" standalone="no"?>
<!DOCTYPE svg PUBLIC "-//W3C//DTD SVG 20010904//EN"
 "http://www.w3.org/TR/2001/REC-SVG-20010904/DTD/svg10.dtd">
<svg version="1.0" xmlns="http://www.w3.org/2000/svg"
 width="512.000000pt" height="512.000000pt" viewBox="0 0 512.000000 512.000000"
 preserveAspectRatio="xMidYMid meet">

<g transform="translate(0.000000,512.000000) scale(0.100000,-0.100000)"
fill="#000000" stroke="none">
<path d="M2042 5107 c-42 -13 -126 -88 -140 -124 -6 -16 -34 -109 -62 -208
-28 -99 -53 -188 -56 -197 -5 -17 -36 -18 -471 -18 -336 0 -477 -3 -507 -12
-55 -16 -138 -99 -154 -154 -7 -23 -12 -85 -12 -138 l0 -96 -55 0 c-46 0 -60
-4 -80 -25 -31 -30 -32 -73 -4 -109 20 -25 24 -26 120 -26 71 0 101 -4 104
-12 2 -7 67 -814 145 -1793 77 -979 145 -1808 150 -1843 17 -120 94 -238 195
-297 99 -57 54 -56 1371 -53 l1209 3 58 23 c124 51 227 185 247 322 5 36 73
866 150 1845 78 979 143 1786 145 1793 3 8 33 12 104 12 96 0 100 1 120 26 28
36 27 79 -4 109 -20 21 -34 25 -80 25 l-55 0 0 96 c0 121 -13 164 -67 224 -73
81 -66 80 -605 80 -257 0 -468 1 -468 3 0 2 -27 97 -60 212 -40 138 -69 220
-86 242 -31 41 -79 77 -123 92 -45 15 -981 14 -1029 -2z m1006 -174 c15 -13
36 -69 68 -183 26 -91 49 -171 51 -177 4 -10 -121 -13 -607 -13 -486 0 -611 3
-607 13 2 6 25 86 51 177 32 114 53 170 68 183 19 16 57 17 488 17 431 0 469
-1 488 -17z m1242 -563 c17 -17 20 -33 20 -115 l0 -95 -1750 0 -1750 0 0 99
c0 92 2 101 22 115 20 14 201 16 1730 16 1695 0 1708 0 1728 -20z m-67 -377
c7 -12 -283 -3612 -294 -3654 -13 -51 -48 -99 -98 -134 l-43 -30 -1228 0
-1228 0 -43 30 c-50 35 -85 83 -98 134 -11 42 -301 3642 -294 3654 2 4 751 7
1663 7 912 0 1661 -3 1663 -7z"/>
<path d="M1625 3655 c-18 -17 -25 -35 -25 -62 0 -21 36 -735 80 -1587 66
-1286 82 -1552 95 -1572 31 -47 106 -42 134 8 14 24 8 178 -66 1609 l-81 1583
-26 23 c-36 30 -80 30 -111 -2z"/>
<path d="M2505 3655 l-25 -24 0 -1591 0 -1591 25 -24 c32 -33 78 -33 110 0
l25 24 0 1591 0 1591 -25 24 c-15 16 -36 25 -55 25 -19 0 -40 -9 -55 -25z"/>
<path d="M3384 3657 l-26 -23 -81 -1583 c-74 -1431 -80 -1585 -66 -1609 28
-50 103 -55 134 -8 13 20 29 286 95 1572 44 852 80 1566 80 1587 0 76 -79 113
-136 64z"/>
</g>
</svg>
